<svg width="25" height="25" viewBox="0 0 21 22" fill="white" xmlns="http://www.w3.org/2000/svg">
<path d="M3.49375 16.3085H12.8667C13.3353 16.3085 13.7188 15.9251 13.7188 15.4564C13.7188 14.9878 13.3353 14.6043 12.8667 14.6043H3.49375C3.0251 14.6043 2.64167 14.9878 2.64167 15.4564C2.64167 15.9251 3.0251 16.3085 3.49375 16.3085ZM3.49375 12.0481H10.3104C10.7791 12.0481 11.1625 11.6646 11.1625 11.196C11.1625 10.7274 10.7791 10.3439 10.3104 10.3439H3.49375C3.0251 10.3439 2.64167 10.7274 2.64167 11.196C2.64167 11.6646 3.0251 12.0481 3.49375 12.0481ZM2.64167 6.93558C2.64167 7.40423 3.0251 7.78766 3.49375 7.78766H12.8667C13.3353 7.78766 13.7188 7.40423 13.7188 6.93558C13.7188 6.46693 13.3353 6.0835 12.8667 6.0835H3.49375C3.0251 6.0835 2.64167 6.46693 2.64167 6.93558ZM17.3827 13.65L14.9287 11.196L17.3827 8.742C17.715 8.40968 17.715 7.87287 17.3827 7.54056C17.0504 7.20825 16.5136 7.20825 16.1813 7.54056L13.1223 10.5995C12.79 10.9319 12.79 11.4687 13.1223 11.801L16.1813 14.86C16.5136 15.1923 17.0504 15.1923 17.3827 14.86C17.7065 14.5276 17.715 13.9823 17.3827 13.65Z" fill="white" fill-opacity="0.5"/>
</svg>
