<svg width="17" height="18" viewBox="0 0 17 18" fill="none" xmlns="http://www.w3.org/2000/svg">
<path d="M5.83289 16.2183V13.6051C5.83288 12.9429 6.37135 12.4049 7.03833 12.4007H9.48737C10.1573 12.4007 10.7004 12.9399 10.7004 13.6051V13.6051V16.2107C10.7004 16.7851 11.1672 17.2518 11.7457 17.256H13.4165C14.1969 17.258 14.9459 16.9517 15.4984 16.4045C16.0509 15.8574 16.3615 15.1145 16.3615 14.3398V6.91671C16.3614 6.29089 16.082 5.69727 15.5985 5.29575L9.92225 0.788888C8.93002 0.000586935 7.51289 0.026052 6.55005 0.849485L0.99585 5.29575C0.489481 5.68543 0.186831 6.28082 0.171875 6.91671V14.3322C0.171875 15.947 1.49037 17.256 3.11682 17.256H4.74951C5.02804 17.258 5.29587 17.1496 5.49354 16.9547C5.69121 16.7599 5.80238 16.4948 5.80237 16.2183H5.83289Z" fill="white"/>
</svg>
